<svg t="1718794498576" class="icon" viewBox="0 0 1024 1024" version="1.1" xmlns="http://www.w3.org/2000/svg" p-id="5049" width="200" height="200"><path d="M428.032 622.592c-36.864 10.24-190.464 47.104-278.528 8.192-18.432 77.824 4.096 165.888 69.632 223.232 63.488 57.344 151.552 73.728 227.328 49.152-49.152-83.968-24.576-241.664-18.432-280.576z" fill="#0170fe" p-id="5050"></path><path d="M186.368 890.88m-63.488 0a63.488 63.488 0 1 0 126.976 0 63.488 63.488 0 1 0-126.976 0Z" fill="#0170fe" p-id="5051"></path><path d="M198.656 876.544c-40.96-36.864-63.488-83.968-67.584-131.072-20.48 49.152-4.096 114.688 43.008 157.696 47.104 43.008 112.64 53.248 161.792 28.672-49.152 0-98.304-18.432-137.216-55.296z" fill="#0170fe" p-id="5052"></path><path d="M239.616 831.488c-57.344-53.248-88.064-124.928-92.16-198.656-36.864 81.92-20.48 180.224 49.152 243.712 69.632 63.488 169.984 71.68 247.808 28.672-71.68 4.096-145.408-20.48-204.8-73.728z" fill="#0170fe" p-id="5053"></path><path d="M423.936 841.728c-2.048-14.336-4.096-28.672-6.144-45.056-32.768-12.288-65.536-30.72-94.208-57.344-28.672-26.624-51.2-57.344-65.536-90.112-14.336 0-30.72 0-45.056-2.048 4.096 51.2 26.624 100.352 67.584 137.216 40.96 36.864 92.16 55.296 143.36 57.344z" fill="#0170fe" p-id="5054"></path><path d="M712.704 79.872m-36.864 0a36.864 36.864 0 1 0 73.728 0 36.864 36.864 0 1 0-73.728 0Z" fill="#0170fe" p-id="5055"></path><path d="M946.176 292.864m-36.864 0a36.864 36.864 0 1 0 73.728 0 36.864 36.864 0 1 0-73.728 0Z" fill="#0170fe" p-id="5056"></path><path d="M256 610.304h-20.48c-59.392-2.048-116.736-26.624-157.696-71.68-40.96-43.008-61.44-98.304-59.392-157.696C20.48 321.536 45.056 266.24 90.112 225.28c43.008-40.96 100.352-61.44 159.744-59.392 239.616 10.24 397.312 147.456 452.608 204.8 10.24 10.24 14.336 22.528 14.336 36.864 0 12.288-6.144 24.576-16.384 34.816-61.44 53.248-217.088 167.936-444.416 167.936z m-16.384-395.264c-45.056 0-86.016 16.384-118.784 47.104-34.816 32.768-53.248 75.776-55.296 122.88-2.048 45.056 14.336 90.112 47.104 122.88 32.768 34.816 77.824 55.296 124.928 57.344 221.184 8.192 374.784-106.496 430.08-155.648-53.248-55.296-198.656-182.272-421.888-192.512-2.048-2.048-4.096-2.048-6.144-2.048z" fill="#0170fe" p-id="5057"></path><path d="M677.888 1013.76c-49.152 0-96.256-16.384-135.168-47.104-47.104-36.864-77.824-90.112-86.016-151.552-28.672-235.52 79.872-411.648 126.976-475.136 8.192-10.24 20.48-18.432 32.768-20.48 12.288-2.048 26.624 2.048 36.864 10.24 63.488 51.2 212.992 194.56 243.712 434.176 8.192 59.392-8.192 116.736-45.056 163.84-36.864 47.104-90.112 77.824-147.456 83.968-8.192 0-18.432 2.048-26.624 2.048z m-53.248-647.168h-2.048c-45.056 59.392-143.36 223.232-118.784 442.368 6.144 47.104 30.72 90.112 67.584 118.784 36.864 28.672 81.92 40.96 126.976 36.864 47.104-6.144 88.064-28.672 116.736-65.536 28.672-36.864 40.96-83.968 34.816-129.024-26.624-223.232-167.936-356.352-225.28-403.456z" fill="#0170fe" p-id="5058"></path><path d="M700.416 327.68c57.344 53.248 104.448 114.688 137.216 182.272 71.68-92.16 61.44-225.28-26.624-305.152s-221.184-77.824-305.152 0c71.68 28.672 137.216 69.632 194.56 122.88z" fill="#0170fe" p-id="5059"></path></svg>